<?xml version="1.0" encoding="UTF-8"?>
<!DOCTYPE svg PUBLIC "-//W3C//DTD SVG 1.1//EN" "http://www.w3.org/Graphics/SVG/1.1/DTD/svg11.dtd">
<!-- Creator: CorelDRAW 2017 -->
<svg xmlns="http://www.w3.org/2000/svg" xml:space="preserve" width="429.059mm" height="433.249mm" version="1.1" style="shape-rendering:geometricPrecision; text-rendering:geometricPrecision; image-rendering:optimizeQuality; fill-rule:evenodd; clip-rule:evenodd"
viewBox="0 0 24750.94 24992.64"
 xmlns:xlink="http://www.w3.org/1999/xlink">
 <defs>
  <style type="text/css">
   <![CDATA[
    .fil0 {fill:#842140}
   ]]>
  </style>
 </defs>
 <g id="Слой_x0020_1">
  <metadata id="CorelCorpID_0Corel-Layer"/>
  <path class="fil0" d="M24159.39 4742.19c-463.34,-529.32 -1123.87,-820.88 -1859.7,-820.88l-17789.19 0.01 -179.05 -1342.38c-192.97,-1446.11 -1199.75,-2578.94 -2292.15,-2578.94l-1307.1 0c-404.42,0 -732.21,327.77 -732.21,732.21 0,404.44 327.77,732.22 732.21,732.22l1307.1 -0.02c234.91,0 732.39,496.72 840.51,1308.05l2095.94 15719.95c92.29,692.93 448.29,1341.62 1002.39,1826.7 410.92,359.82 896.57,599.12 1405.3,699.23 -207.26,381.17 -325.12,817.82 -325.12,1281.36 0,1485.01 1208.14,2692.96 2692.96,2692.96 1484.82,0 2692.96,-1207.96 2692.96,-2692.96 0,-442.36 -107.93,-859.77 -297.84,-1228.35l3836.87 0c-189.92,368.58 -297.84,785.99 -297.84,1228.35 0,1485.01 1208.14,2692.96 2692.95,2692.96 1484.82,0 2692.96,-1207.96 2692.96,-2692.96 0,-442.36 -107.93,-859.77 -297.84,-1228.35l1918.43 0c404.23,0 732.21,-327.96 732.21,-732.21 0,-404.43 -327.97,-732.21 -732.21,-732.21l-14770.55 0.01c-715.43,0 -1399.59,-599.11 -1494.16,-1308.25l-153.12 -1148.84 5698.81 0c0.2,0 0.39,0.2 0.57,0.2 0.19,0 0.39,-0.2 0.76,-0.2l4704.06 0c0.19,0 0.39,0.2 0.76,0.2 0.19,0 0.19,-0.2 0.39,-0.2l4051.73 0c699.03,0 1389.09,-267.14 1943.21,-752.04 554.12,-485.09 910.12,-1133.97 1002.4,-1826.9l1050.25 -7876.95c97.24,-729.35 -104.3,-1422.47 -567.65,-1951.79l0 0.02zm-13179.53 17557.52c0,677.48 -551.06,1228.54 -1228.54,1228.54 -677.29,0 -1228.55,-551.06 -1228.55,-1228.54 0,-677.29 551.25,-1228.35 1228.55,-1228.35 677.48,0 1228.54,551.06 1228.54,1228.35zm8627.07 0c0,677.48 -551.06,1228.54 -1228.55,1228.54 -677.48,0 -1228.54,-551.06 -1228.54,-1228.54 0,-677.29 551.06,-1228.35 1228.54,-1228.35 677.49,0 1228.55,551.06 1228.55,1228.35zm3450.53 -16592.88c181.33,207.07 258.75,488.71 217.95,793.42l-440.28 3303.14 -4982.05 0 294.41 -4417.65 4152.21 0c307.57,0 576.62,114.03 757.76,321.1zm-10398.28 9978.61l-294.61 -4417.65 3923.21 0 -294.61 4417.65 -3334 0zm-392.22 -5882.06l-294.41 -4417.65 4707.29 0 -294.41 4417.65 -4118.47 0zm-1762.07 -4417.65l294.41 4417.65 -5504.71 0 -589.01 -4417.65 5799.31 0zm-5015.05 5882.06l5407.09 0 294.6 4417.65 -5112.68 0 -589.01 -4417.65zm15241.35 4417.65l-3270.34 0 294.6 -4417.65 4884.43 0 -414.54 3109.58c-94.58,709.14 -778.92,1308.06 -1494.16,1308.06l0.01 0.01zm0 0z"/>
 </g>
</svg>
