<?xml version="1.0" encoding="UTF-8"?>
<!DOCTYPE svg PUBLIC "-//W3C//DTD SVG 1.1//EN" "http://www.w3.org/Graphics/SVG/1.1/DTD/svg11.dtd">
<!-- Creator: CorelDRAW 2017 -->
<svg xmlns="http://www.w3.org/2000/svg" xml:space="preserve" width="710mm" height="586.97mm" version="1.1" style="shape-rendering:geometricPrecision; text-rendering:geometricPrecision; image-rendering:optimizeQuality; fill-rule:evenodd; clip-rule:evenodd"
viewBox="0 0 5439.25 4496.73"
 xmlns:xlink="http://www.w3.org/1999/xlink">
 <defs>
  <style type="text/css">
   <![CDATA[
    .fil0 {fill:#842140}
   ]]>
  </style>
 </defs>
 <g id="Слой_x0020_1">
  <metadata id="CorelCorpID_0Corel-Layer"/>
  <path class="fil0" d="M1601.45 2598.97l-830.96 0c-76.28,0 -137.95,36.92 -138.76,83.06l0 1243.51c0,46.15 62.48,83.06 138.76,83.06l830.96 0c77.09,0 138.76,-37.4 138.76,-83.06l0 -1243.51c0,-46.15 -62.48,-83.06 -138.76,-83.06z"/>
  <path class="fil0" d="M3135.11 488.13l-830.96 0c-76.28,0 -138.76,55.99 -138.76,125.23l0 3269.27c0,69.98 62.48,125.97 138.76,125.97l830.96 0c77.09,0 138.76,-56.72 138.76,-125.97l0 -3268.54c0,-69.98 -62.48,-125.97 -138.76,-125.97z"/>
  <path class="fil0" d="M4701.48 1858.44l-830.96 0c-77.09,0 -138.76,47.86 -138.76,107.7l0 1934.77c0,59.83 62.48,107.7 138.76,107.7l830.96 0c77.09,0 138.76,-48.5 138.76,-107.7l0 -1934.77c0,-59.83 -62.48,-107.7 -138.76,-107.7z"/>
  <polygon class="fil0" points="-0,0 153.22,0 153.22,4347.39 5439.25,4347.39 5439.25,4496.73 153.22,4496.73 -0,4496.73 -0,4347.39 "/>
 </g>
</svg>
