<?xml version="1.0" encoding="UTF-8"?>
<!DOCTYPE svg PUBLIC "-//W3C//DTD SVG 1.1//EN" "http://www.w3.org/Graphics/SVG/1.1/DTD/svg11.dtd">
<!-- Creator: CorelDRAW 2017 -->
<svg xmlns="http://www.w3.org/2000/svg" xml:space="preserve" width="396.794mm" height="353.019mm" version="1.1" style="shape-rendering:geometricPrecision; text-rendering:geometricPrecision; image-rendering:optimizeQuality; fill-rule:evenodd; clip-rule:evenodd"
viewBox="0 0 3329.83 2962.47"
 xmlns:xlink="http://www.w3.org/1999/xlink">
 <defs>
  <style type="text/css">
   <![CDATA[
    .fil0 {fill:#842140}
   ]]>
  </style>
 </defs>
 <g id="Слой_x0020_1">
  <metadata id="CorelCorpID_0Corel-Layer"/>
  <path class="fil0" d="M1664.91 2962.47c-47.4,0 -93.11,-17.17 -128.72,-48.37 -134.52,-117.62 -264.21,-228.16 -378.63,-325.66l-0.58 -0.51c-335.47,-285.88 -625.15,-532.76 -826.71,-775.96 -225.31,-271.88 -330.26,-529.66 -330.26,-811.27 0,-273.61 93.82,-526.03 264.16,-710.79 172.37,-186.95 408.89,-289.92 666.06,-289.92 192.21,0 368.24,60.77 523.18,180.6 78.19,60.49 149.07,134.52 211.52,220.87 62.47,-86.35 133.32,-160.38 211.54,-220.87 154.94,-119.83 330.97,-180.6 523.18,-180.6 257.14,0 493.69,102.96 666.06,289.92 170.34,184.77 264.13,437.19 264.13,710.79 0,281.61 -104.92,539.39 -330.23,811.24 -201.56,243.22 -491.22,490.08 -826.64,775.93 -114.63,97.65 -244.52,208.37 -379.34,326.27 -35.59,31.15 -81.32,48.32 -128.7,48.32l-0.01 -0zm-734.7 -2767.42c-202.04,0 -387.65,80.63 -522.67,227.07 -137.03,148.64 -212.51,354.11 -212.51,578.59 0,236.85 88.03,448.67 285.39,686.81 190.76,230.19 474.51,471.99 803.04,751.97l0.61 0.51c114.85,97.88 245.05,208.85 380.56,327.34 136.32,-118.71 266.72,-229.86 381.8,-327.9 328.51,-279.98 612.22,-521.73 802.99,-751.92 197.34,-238.14 285.37,-449.97 285.37,-686.81 0,-224.47 -75.48,-429.95 -212.51,-578.59 -135,-146.43 -320.63,-227.07 -522.65,-227.07 -148.01,0 -283.9,47.05 -403.88,139.83 -106.93,82.72 -181.41,187.28 -225.08,260.45 -22.46,37.62 -61.99,60.08 -105.76,60.08 -43.77,0 -83.3,-22.46 -105.76,-60.08 -43.65,-73.16 -118.13,-177.73 -225.08,-260.45 -119.99,-92.78 -255.88,-139.83 -403.86,-139.83l-0 0zm0 0z"/>
 </g>
</svg>
