<?xml version="1.0" encoding="UTF-8"?>
<!DOCTYPE svg PUBLIC "-//W3C//DTD SVG 1.1//EN" "http://www.w3.org/Graphics/SVG/1.1/DTD/svg11.dtd">
<!-- Creator: CorelDRAW 2017 -->
<svg xmlns="http://www.w3.org/2000/svg" xml:space="preserve" width="44.7311mm" height="44.731mm" version="1.1" style="shape-rendering:geometricPrecision; text-rendering:geometricPrecision; image-rendering:optimizeQuality; fill-rule:evenodd; clip-rule:evenodd"
viewBox="0 0 31.28 31.28"
 xmlns:xlink="http://www.w3.org/1999/xlink">
 <defs>
  <style type="text/css">
   <![CDATA[
    .fil0 {fill:#842140}
   ]]>
  </style>
 </defs>
 <g id="Слой_x0020_1">
  <metadata id="CorelCorpID_0Corel-Layer"/>
  <g id="_2953368351824">
   <g>
    <path class="fil0" d="M22.65 0l-14.02 0c-4.76,0 -8.63,3.87 -8.63,8.63l0 14.02c0,4.76 3.87,8.63 8.63,8.63l14.02 0c4.76,0 8.63,-3.87 8.63,-8.63l0 -14.02c0,-4.76 -3.87,-8.63 -8.63,-8.63zm5.86 22.65c0,3.23 -2.63,5.86 -5.86,5.86l-14.02 0c-3.23,0 -5.86,-2.63 -5.86,-5.86l0 -14.02c0,-3.23 2.63,-5.86 5.86,-5.86l14.02 0c3.23,0 5.86,2.63 5.86,5.86l-0 14.02 0 0z"/>
    <path class="fil0" d="M15.64 7.58c-4.44,0 -8.06,3.62 -8.06,8.06 0,4.44 3.62,8.06 8.06,8.06 4.44,0 8.06,-3.62 8.06,-8.06 0,-4.44 -3.62,-8.06 -8.06,-8.06zm0 13.34c-2.91,0 -5.29,-2.37 -5.29,-5.28 0,-2.91 2.37,-5.29 5.29,-5.29 2.91,0 5.29,2.37 5.29,5.29 0,2.91 -2.37,5.28 -5.29,5.28z"/>
    <path class="fil0" d="M24.04 5.23c-0.53,0 -1.06,0.22 -1.44,0.6 -0.38,0.38 -0.6,0.9 -0.6,1.44 0,0.53 0.22,1.06 0.6,1.44 0.38,0.38 0.9,0.6 1.44,0.6 0.54,0 1.06,-0.22 1.44,-0.6 0.38,-0.38 0.6,-0.9 0.6,-1.44 0,-0.54 -0.22,-1.06 -0.6,-1.44 -0.38,-0.38 -0.9,-0.6 -1.44,-0.6z"/>
   </g>
  </g>
 </g>
</svg>
