<?xml version="1.0" encoding="UTF-8"?>
<!DOCTYPE svg PUBLIC "-//W3C//DTD SVG 1.1//EN" "http://www.w3.org/Graphics/SVG/1.1/DTD/svg11.dtd">
<!-- Creator: CorelDRAW 2017 -->
<svg xmlns="http://www.w3.org/2000/svg" xml:space="preserve" width="3.2rem" height="3.2rem" version="1.1" style="shape-rendering:geometricPrecision; text-rendering:geometricPrecision; image-rendering:optimizeQuality; fill-rule:evenodd; clip-rule:evenodd"
viewBox="0 0 9670.78 9672.38"
 xmlns:xlink="http://www.w3.org/1999/xlink">
 <defs>
  <style type="text/css">
   <![CDATA[
    .fil0 {fill:#817F80}
   ]]>
  </style>
 </defs>
 <g id="Слой_x0020_1">
  <metadata id="CorelCorpID_0Corel-Layer"/>
  <path class="fil0" d="M7083.6 6359.59c496.15,-677.53 822.01,-1561.04 822.01,-2406.78 0,-2179.41 -1773.4,-3952.81 -3952.81,-3952.81 -2179.41,0 -3952.79,1773.4 -3952.79,3952.81 0,2179.41 1773.4,3952.81 3952.81,3952.81 847.18,0 1746.77,-348.93 2423.88,-844.76l115.37 -84.48 2468.41 2651.58c59.63,64.06 163.93,55.45 223.52,-4.14l439.89 -439.89c62.51,-62.51 62.55,-164.97 0.04,-227.49 -369.07,-369.09 -752.81,-728.65 -1132.65,-1086.76 -460.56,-434.22 -923.05,-866.72 -1387.25,-1297.06l-105.08 -97.42 84.66 -115.61zm-3130.78 602.03c-1659.24,0 -3008.81,-1349.57 -3008.81,-3008.81 0,-1659.24 1349.57,-3008.81 3008.81,-3008.81 1659.24,0 3008.81,1349.57 3008.81,3008.81 0,1659.23 -1349.58,3008.81 -3008.81,3008.81z"/>
 </g>
</svg>
