<?xml version="1.0" encoding="UTF-8"?>
<!DOCTYPE svg PUBLIC "-//W3C//DTD SVG 1.1//EN" "http://www.w3.org/Graphics/SVG/1.1/DTD/svg11.dtd">
<!-- Creator: CorelDRAW 2017 -->
<svg xmlns="http://www.w3.org/2000/svg" xml:space="preserve" width="442.085mm" height="442.005mm" version="1.1" style="shape-rendering:geometricPrecision; text-rendering:geometricPrecision; image-rendering:optimizeQuality; fill-rule:evenodd; clip-rule:evenodd"
viewBox="0 0 5469.31 5468.32"
 xmlns:xlink="http://www.w3.org/1999/xlink">
 <defs>
  <style type="text/css">
   <![CDATA[
    .fil0 {fill:#842140}
   ]]>
  </style>
 </defs>
 <g id="Слой_x0020_1">
  <metadata id="CorelCorpID_0Corel-Layer"/>
  <path class="fil0" d="M1909.74 2896.42l-60.52 -41.68c-425.14,-292.81 -679.59,-773.07 -679.59,-1289.71 0,-862.93 702.1,-1565.03 1565.03,-1565.03 862.93,0 1565.03,702.1 1565.03,1565.03 0,516.63 -254.44,996.9 -679.58,1289.71l-60.52 41.68 69.46 23.97c392.02,135.27 745.84,358.57 1038.96,651.7 491.18,491.19 773.9,1137.99 798.98,1832.14l2.32 64.09 -5469.31 0 2.32 -64.09c25.09,-694.16 307.8,-1340.95 799,-1832.14 293.12,-293.13 646.94,-516.42 1038.96,-651.7l69.46 -23.97zm3174.06 2255.44c-172.91,-1155.6 -1172.93,-2021.8 -2349.14,-2021.8 -1176.21,0 -2176.23,866.19 -2349.14,2021.8l4698.28 0zm-2349.14 -2380.58c665.14,0 1206.25,-541.1 1206.25,-1206.25 0,-665.14 -541.11,-1206.25 -1206.25,-1206.25 -665.14,0 -1206.25,541.1 -1206.25,1206.25 0,665.15 541.1,1206.25 1206.25,1206.25z"/>
 </g>
</svg>
